<svg xmlns="http://www.w3.org/2000/svg" viewBox="0 0 605.394 683.127"><title>Asset 11</title><g id="Layer_2" data-name="Layer 2"><g id="Layer_1-2" data-name="Layer 1"><polygon points="532.858 293.634 448.563 315.97 471.528 232.655 532.858 293.634" fill="#c4d4e0" opacity="0.52"/><polygon points="75.016 506.525 251.618 683.127 316.259 441.884 75.016 506.525" fill="#ffe1d9"/><polygon points="270.375 0 234.931 132.278 138.097 35.444 270.375 0" fill="#d8ac3c"/><polygon points="0 532.526 76.548 514.001 21.614 459.068 0 532.526" fill="#eeb9a6"/><polygon points="399.333 435.887 115.976 138.374 22.9 454.697 81.102 512.899 399.333 435.887" fill="#eeb9a6"/><polygon points="493.257 663.818 207.019 369.073 605.394 268.557 493.257 663.818" fill="#0b3142"/><polygon points="490.852 533.15 207.917 600.73 290.958 321.583 490.852 533.15" fill="#c4d4e0"/><polygon points="411.958 449.583 257.958 287.583 471.563 232.495 411.958 449.583" fill="#9aabb9"/></g></g></svg>